<?xml version="1.0" standalone="no"?>
<!DOCTYPE svg PUBLIC "-//W3C//DTD SVG 20010904//EN"
 "http://www.w3.org/TR/2001/REC-SVG-20010904/DTD/svg10.dtd">
<svg version="1.0" xmlns="http://www.w3.org/2000/svg"
 width="512.000000pt" height="512.000000pt" viewBox="0 0 512.000000 512.000000"
 preserveAspectRatio="xMidYMid meet">
<metadata>
Created by potrace 1.11, written by Peter Selinger 2001-2013
</metadata>
<g transform="translate(0.000000,512.000000) scale(0.100000,-0.100000)"
fill="#000000" stroke="none">
<path d="M793 5049 c8 -19 240 -540 515 -1159 l501 -1125 291 -1345 c160 -740
294 -1353 298 -1364 6 -13 98 217 326 810 1255 3267 1615 4208 1612 4211 -1 2
-365 -328 -807 -732 -442 -404 -807 -734 -811 -732 -4 1 -438 331 -964 732
-527 402 -962 732 -966 734 -5 1 -3 -12 5 -30z m1341 -1513 c136 -104 243
-192 239 -196 -4 -4 -80 -25 -169 -47 l-160 -40 -94 211 c-51 116 -104 235
-117 265 l-24 53 39 -28 c21 -16 149 -114 286 -218z m788 -1003 c-224 -584
-408 -1060 -409 -1059 -4 3 -241 1100 -245 1129 -3 23 55 80 527 511 291 266
531 483 532 482 1 -1 -181 -480 -405 -1063z"/>
</g>
</svg>
